<svg xmlns="http://www.w3.org/2000/svg" viewBox="0 0 125 36"><path fill="#2788ed" d="M35.5 19.9 20.1 35.2a2.66 2.66 0 0 1-3.7 0L1 19.9a2.66 2.66 0 0 1 0-3.7L16.4.8a2.66 2.66 0 0 1 3.7 0l15.4 15.4c1 1 1 2.6 0 3.7z"/><path fill="#1a77d9" d="M15.1 30.5a4.32 4.32 0 0 1 .1-6.2 4.32 4.32 0 0 1 6.2.1 4.32 4.32 0 0 1-.1 6.2c-1.8 1.7-4.6 1.7-6.2-.1zm9.6-9.5a4.32 4.32 0 0 1 .1-6.2 4.32 4.32 0 0 1 6.2.1 4.32 4.32 0 0 1-.1 6.2c-1.8 1.7-4.6 1.7-6.2-.1zm-19.1-.2a4.32 4.32 0 0 1 .1-6.2 4.32 4.32 0 0 1 6.2.1c1.7 1.8 1.7 4.5-.1 6.2a4.32 4.32 0 0 1-6.2-.1zm9.7-9.4a4.32 4.32 0 0 1 .1-6.2 4.32 4.32 0 0 1 6.2.1c1.7 1.8 1.7 4.5-.1 6.2s-4.6 1.6-6.2-.1z"/><path fill="#333" d="M47.4 26.9c-1.1 0-1.7-.6-1.7-1.7V10.9c0-1.1.6-1.7 1.7-1.7h6c1.9 0 3.3.4 4.3 1.2s1.5 1.9 1.5 3.4c0 1-.3 1.8-.8 2.5s-1.2 1.2-2 1.5c1 .3 1.8.8 2.4 1.5s.8 1.6.8 2.7c0 1.6-.6 2.8-1.6 3.7-1 .8-2.6 1.3-4.4 1.3h-6.2v-.1zm1.4-10.1h4.1c2.2 0 3.3-.8 3.3-2.6 0-1.7-1.1-2.6-3.3-2.6h-4.1v5.2zm0 7.7h4.5c2.2 0 3.3-.9 3.3-2.6 0-1.8-1.1-2.6-3.3-2.6h-4.5v5.2zm18.1 2.7c-2.8 0-4.1-1.6-4.1-4.7V10.6c0-1 .5-1.6 1.5-1.6s1.6.6 1.6 1.6v11.7c0 1.5.6 2.3 1.9 2.3h.3c.1 0 .2 0 .3-.1.2 0 .4 0 .5.2.1.1.1.5.1 1 0 .4-.1.8-.3 1-.1.2-.4.3-.8.4-.3 0-.7.1-1 .1zm9.2 0c-1.2 0-2.4-.3-3.3-.8-1-.5-1.7-1.2-2.2-2.2s-.8-2.1-.8-3.4.3-2.4.8-3.4 1.2-1.7 2.2-2.2 2-.8 3.3-.8c1.2 0 2.4.3 3.3.8 1 .5 1.7 1.2 2.2 2.2s.8 2.1.8 3.4-.3 2.4-.8 3.4-1.2 1.7-2.2 2.2c-.9.5-2 .8-3.3.8zm0-2.4c1 0 1.7-.3 2.3-1s.8-1.7.8-3-.3-2.4-.8-3c-.6-.7-1.3-1-2.3-1s-1.7.3-2.3 1-.8 1.7-.8 3 .3 2.4.8 3c.6.6 1.4 1 2.3 1zm14.6 2.4c-1.3 0-2.4-.3-3.4-.8-1-.6-1.7-1.2-2.2-2.2s-.8-2.1-.8-3.4.3-2.4.8-3.4 1.2-1.7 2.2-2.2 2.1-.8 3.4-.8c.6 0 1.2.1 1.8.2s1.2.4 1.8.8c.3.2.6.5.6.8.1.3 0 .6-.1.9a.9.9 0 0 1-.6.6c-.3.1-.6.1-1-.1-.8-.4-1.5-.6-2.2-.6-1.1 0-1.9.3-2.5 1s-.9 1.7-.9 2.9.3 2.2.9 2.9 1.5 1 2.5 1a4.56 4.56 0 0 0 2.2-.6c.3-.2.7-.2.9-.1a.9.9 0 0 1 .6.6c.1.3.1.6.1.9-.1.3-.3.6-.6.8-.6.3-1.1.6-1.7.8-.7-.1-1.3 0-1.8 0zm7.6-.1c-1 0-1.5-.6-1.5-1.6V10.6c0-1 .5-1.6 1.5-1.6s1.6.6 1.6 1.6v9.3h.1l4.1-4.4c.3-.3.6-.6.9-.8a1.69 1.69 0 0 1 1-.3c.4 0 .8.1 1 .3s.3.5.3.8-.1.6-.5 1l-3.7 3.9 4.1 4.5c.3.3.4.6.4 1s-.1.6-.4.8a1.69 1.69 0 0 1-1 .3c-.5 0-.8-.1-1.1-.3s-.6-.5-.9-.8l-4.4-4.6h-.1v4.1c.2 1.2-.3 1.7-1.4 1.7zm13.5-15c-.6 0-1-.1-1.4-.4-.3-.3-.5-.7-.5-1.2 0-.6.1-1 .5-1.2.3-.3.8-.4 1.4-.4 1.2 0 1.9.6 1.9 1.7-.1 1-.7 1.5-1.9 1.5zm0 15c-.5 0-.9-.1-1.2-.5-.3-.3-.4-.7-.4-1.2v-9.2c0-1.1.5-1.7 1.5-1.7s1.6.6 1.6 1.7v9.2c0 .6-.1 1-.4 1.2-.2.3-.6.5-1.1.5zm10.4.1c-3.3 0-4.8-1.6-4.8-4.8V17H116c-.8 0-1.2-.4-1.2-1.2s.4-1.2 1.2-1.2h1.3v-2.3c0-1 .6-1.6 1.6-1.6s1.5.6 1.5 1.6v2.3h2.6c.8 0 1.2.4 1.2 1.2s-.4 1.2-1.2 1.2h-2.6v5.2c0 .8.2 1.4.6 1.8.3.4.9.6 1.7.6.3 0 .6 0 .8-.1s.4-.1.6-.1.3.1.5.2c.1.1.2.4.2.9 0 .3-.1.6-.1.9-.1.3-.3.4-.6.6-.2.1-.5.1-.8.2-.5-.1-.8 0-1.1 0z"/></svg>